# xmcd
#
# Track frame offsets:
#	150
#	17525
#	30807
#	43373
#	60668
#	77583
#	104135
#	118109
#	135224
#	156663
#	174231
#	193840
#	214304
#	232494
#	249647
#
# Disc length: 3587 seconds
#
# Revision: 1
# Processed by: cddbd v1.5.2PL0 Copyright (c) Steve Scherf et al.
# Submitted via: audiograbber 1.83.01
#
DISCID=d50e010f
DTITLE=Various Artist - no.1 r and b album disc no 3
DYEAR=1900
DGENRE=
TTITLE0=sean paul - beware
TTITLE1=rmxcrw - turn me on
TTITLE2=wayne wonder - no letting go
TTITLE3=k-salaam - street life
TTITLE4=lovestation - teardrops
TTITLE5=n'n'g - right before my eyes
TTITLE6=tony matterhorn - dutty wine
TTITLE7=da'ville - always on my mind
TTITLE8=malik yusef - auto-eroticism
TTITLE9=eric robinson - been in love
TTITLE10=morgan heritage - love you right
TTITLE11=allure - long lost love
TTITLE12=anthony david - words
TTITLE13=the dre allen - melody and i
TTITLE14=miri ben-ari - hold your head up high
EXTD=
EXTT0=
EXTT1=
EXTT2=
EXTT3=
EXTT4=
EXTT5=
EXTT6=
EXTT7=
EXTT8=
EXTT9=
EXTT10=
EXTT11=
EXTT12=
EXTT13=
EXTT14=
PLAYORDER=
